<svg xmlns:rdf="http://www.w3.org/1999/02/22-rdf-syntax-ns#" xmlns="http://www.w3.org/2000/svg" height="297mm" width="210mm" version="1.1" enable-background="new" xmlns:cc="http://creativecommons.org/ns#" xmlns:xlink="http://www.w3.org/1999/xlink" viewBox="0 0 744.09448819 1052.3622047" xmlns:dc="http://purl.org/dc/elements/1.1/">
<defs>
<linearGradient id="a">
<stop style="stop-color:#fff" offset="0"/>
<stop offset=".532"/>
<stop style="stop-color:#fff" offset="1"/>
</linearGradient>
<linearGradient id="h" y2="724" gradientUnits="userSpaceOnUse" x2="538" gradientTransform="matrix(1.49 0 0 1.49 -196 -123)" y1="167" x1="227">
<stop style="stop-color:#005300" offset="0"/>
<stop style="stop-color:#7fa57f" offset="1"/>
</linearGradient>
<linearGradient id="e" y2="772" gradientUnits="userSpaceOnUse" x2="301" gradientTransform="matrix(1.49 0 0 1.49 -196 -129)" y1="773" x1="268">
<stop style="stop-color:#333" offset="0"/>
<stop style="stop-color:#666" offset=".545"/>
<stop style="stop-color:#333" offset="1"/>
</linearGradient>
<linearGradient id="c" y2="555" gradientUnits="userSpaceOnUse" x2="310" gradientTransform="matrix(1.49 0 0 1.49 -198 -131)" y1="536" x1="295">
<stop style="stop-color:#58b7f5" offset="0"/>
<stop style="stop-color:#0b70b1" offset="1"/>
</linearGradient>
<linearGradient id="b" y2="551" gradientUnits="userSpaceOnUse" x2="309" gradientTransform="matrix(1.49 0 0 1.49 40.1 -130)" y1="536" x1="295">
<stop style="stop-color:#b9b9b9" offset="0"/>
<stop style="stop-color:#241c1c" offset="1"/>
</linearGradient>
<linearGradient id="g" y2="352" xlink:href="#a" gradientUnits="userSpaceOnUse" x2="366" gradientTransform="matrix(1.49 0 0 1.49 -196 -129)" y1="319" x1="367"/>
<linearGradient id="f" y2="352" xlink:href="#a" gradientUnits="userSpaceOnUse" x2="366" gradientTransform="matrix(1.2 0 0 1.2 -655 -155)" y1="319" x1="367"/>
<linearGradient id="d" y2="742" gradientUnits="userSpaceOnUse" x2="443" gradientTransform="matrix(1.49 0 0 1.49 -196 -129)" y1="742" x1="377">
<stop style="stop-color:#fff" offset="0"/>
<stop style="stop-color:#ccc" offset=".153"/>
<stop style="stop-color:#ccc" offset=".490"/>
<stop style="stop-color:#b3b3b3" offset=".872"/>
<stop style="stop-color:#ececec" offset="1"/>
</linearGradient>
</defs>
<g>
<rect style="fill-rule:evenodd;stroke:#000;stroke-width:1.49px;fill:url(#h)" height="955" width="646" y="44.6" x="50.8"/>
<rect style="stroke:#000;stroke-width:1.49;fill:#cddcdb" height="101" width="73.6" y="18.1" x="344"/>
<rect style="stroke:#000;stroke-width:1.49;fill:#333" height="141" width="84.1" y="859" x="191"/>
<rect style="stroke:#000;stroke-width:1.49;fill:url(#e)" height="37.5" width="58.6" y="1e3" x="197"/>
<rect style="stroke:#c1c1c1;stroke-width:2.97;fill:none" height="630" width="50" y="359" x="101"/>
<rect style="stroke:#c1c1c1;stroke-width:2.97;fill:none" height="630" width="50" y="360" x="604"/>
<rect style="stroke:#c1c1c1;stroke-width:2.23;fill:none" height="60" width="60.5" y="653" x="228"/>
<rect style="stroke:#c1c1c1;stroke-width:2.23;fill:none" height="60" width="60.5" y="654" x="465"/>
<circle r="21.4" style="stroke:url(#c);stroke-width:4.46;fill:#0a71b2" cx="258" cy="683"/>
<circle r="21.4" style="stroke:url(#b);stroke-width:4.46;fill:#241c1c" cx="495" cy="684"/>
<rect style="fill:#a4a4a4" height="125" width="173" y="454" x="286"/>
<rect style="fill:#a4a4a4" height="172" width="125" y="430" x="310"/>
<rect style="stroke:#333;stroke-width:2.97;fill:#433535" height="134" width="133" y="451" x="306"/>
<flowRoot xml:space="preserve" style="letter-spacing:0px;font-size:40px;word-spacing:0px;font-family:sans-serif;line-height:125%;fill:#000000" transform="matrix(1.49 0 0 1.49 -196 -129)"><flowRegion><rect y="406" width="70.7" x="346" height="59.3"/></flowRegion><flowPara/></flowRoot>
<text style="letter-spacing:0px;font-size:59.5px;word-spacing:0px;font-family:sans-serif;line-height:125%;fill:#000000" xml:space="preserve" y="510.22165" x="325.1864"><tspan x="325.1864" style="font-size:18.6px;font-family:sans-serif;font-weight:bold;fill:#c7c7c7" y="510.22165">STM32F4</tspan></text>
<rect style="fill-rule:evenodd;stroke:url(#g);stroke-width:6.7;fill:#454545" rx="20.2" ry="22.3" height="44.6" width="113" y="348" x="295"/>
<rect style="fill:#a4a4a4" height="70.8" width="98.2" y="201" x="306"/>
<rect style="fill:#a4a4a4" height="97.6" width="71.1" y="187" x="319"/>
<rect style="stroke:#333;stroke-width:1.69;fill:#433535" height="75.9" width="75.3" y="199" x="317"/>
<rect style="fill-rule:evenodd;stroke:url(#f);stroke-width:5.38;fill:#454545" transform="rotate(-90)" rx="16.2" ry="17.9" height="35.8" width="90.9" y="229" x="-261"/>
<path style="fill:#fff;fill-rule:evenodd" d="m648 295 10.1 0.265-14.9 31.6-10.6-0.265z"/>
<path style="fill:#fff;fill-rule:evenodd" d="m641 295-15.7 31.3-7.7 0.265c3.82-1.23 5.3-1.1 7.11-6.02 1.33-4.52 0.217-8.94-3.51-12.7-7.54-7.53-7.82-13-4.15-12.9z"/>
<path style="fill:#fff;fill-rule:evenodd" d="m589 319 18.8-36.5h56.5l-2.12 5.44h-45.8c-1.21 0.0382-4.05-0.0581-7.66 2.49-10.5 7.76 6.13 20.3 6.74 26.6 0.0681 0.879-0.865 1.99-1.81 2z"/>
<path style="fill:#fff;fill-rule:evenodd" d="m416 543 4.34 0.114-6.4 13.6-4.57-0.114z"/>
<path style="fill:#fff;fill-rule:evenodd" d="m413 543-6.74 13.5-3.31 0.114c1.64-0.528 2.28-0.474 3.06-2.59 0.571-1.95 0.0934-3.84-1.51-5.45-3.25-3.24-3.36-5.58-1.79-5.56z"/>
<path style="fill:#fff;fill-rule:evenodd" d="m391 553 8.11-15.7h24.3l-0.914 2.34h-19.7c-0.52 0.0165-1.74-0.025-3.3 1.07-4.5 3.34 2.64 8.72 2.9 11.4 0.0293 0.378-0.372 0.857-0.781 0.861z"/>
<path style="fill-rule:evenodd;stroke:#2e2e2e;stroke-width:1.49;fill:url(#d)" d="m364 967h13.8v-18.4l72.5 0.271 0.265 19 10.6-0.271 0.265 22.2-10.9 0.271v10h-72.7l0.026-9h-13.6z"/>
<rect style="fill:#a4a4a4" height="50.1" width="59.7" y="773" x="287"/>
<rect style="fill:#a4a4a4" height="60.4" width="50.3" y="768" x="292"/>
<rect style="stroke:#333;stroke-width:1.19;fill:#433535" height="53.7" width="53.3" y="772" x="291"/>
<rect style="stroke:#005300;stroke-width:.446;fill:#56ed45" height="12.8" width="30" y="686" x="325"/>
<rect style="stroke:#005300;stroke-width:.446;fill:#f33f3f" height="12.8" width="30" y="685" x="407"/>
<rect style="stroke:#005300;stroke-width:.446;fill:#e6bd4c" height="12.8" width="30" y="644" x="366"/>
<rect style="stroke:#005300;stroke-width:.446;fill:#4649ec" height="12.8" width="30" y="728" x="368"/>
<rect style="stroke:#b5b5b5;stroke-width:1.49;fill:#383838" height="50.6" width="31.1" y="667" x="367"/>
<path style="stroke:#000;stroke-width:4.46;fill:none" d="m389 737 37.5 69.8h34.5"/>
<path style="stroke:#000;stroke-width:4.46;fill:none" d="m421 655 116-116h194"/>
<path style="stroke:#000;stroke-width:4.46;fill:none" d="m234 683h-226"/>
<text style="letter-spacing:0px;font-size:59.5px;word-spacing:0px;font-family:sans-serif;line-height:125%;fill:#000000" xml:space="preserve" y="817.59399" x="464.27377"><tspan x="464.27377" style="font-size:29.7px" y="817.59399">Eth Link</tspan></text>
<text style="letter-spacing:0px;font-size:59.5px;word-spacing:0px;line-height:125%;font-family:sans-serif;fill:#000000" xml:space="preserve" y="901.21027" x="513.85553"><tspan x="513.85553" style="font-size:29.7px;text-anchor:middle;text-align:center" y="901.21027">USB device</tspan><tspan x="513.85553" style="font-size:29.7px;text-anchor:middle;text-align:center" y="938.37097">interface</tspan></text>
<path style="stroke:#000;stroke-width:3.83;fill:none" d="m396 965v-53.4h15.5"/>
<path style="stroke:#000;stroke-width:4.46;fill:none" d="m365 680-114-114h-243"/>
</g>
<g>
<path style="fill-opacity:.837;fill:#fff;fill-rule:evenodd" d="m42.8 315c228 7 533-4 670-96l-7-212-666-1.63z"/>
<text style="letter-spacing:0px;font-size:59.5px;word-spacing:0px;font-family:sans-serif;line-height:125%;fill:#000000" xml:space="preserve" y="138.08342" x="215.8277"><tspan x="215.8277" style="font-size:74.3px;font-family:Arial" y="138.08342">STM32F4</tspan><tspan x="215.8277" style="font-size:74.3px;font-family:Arial" y="230.98524">Discovery</tspan></text>
</g>
</svg>
